<svg width="40" height="40" viewBox="0 0 40 40" fill="none" xmlns="http://www.w3.org/2000/svg">
<path d="M37.1797 26.2613L27.9805 22.1383L27.9571 22.1266C27.4791 21.9219 26.9577 21.8397 26.44 21.8875C25.9223 21.9352 25.4247 22.1114 24.9922 22.4C24.9413 22.4336 24.8924 22.4701 24.8457 22.5094L20.0918 26.5621C17.0801 25.0992 13.9707 22.0133 12.5078 19.0406L16.5664 14.2144C16.6055 14.1656 16.6426 14.1168 16.6778 14.0641C16.9598 13.633 17.131 13.1389 17.176 12.6257C17.2209 12.1125 17.1384 11.5962 16.9356 11.1227C16.9348 11.1149 16.9348 11.107 16.9356 11.0992L12.8008 1.88242C12.5327 1.26379 12.0717 0.748463 11.4867 0.413352C10.9017 0.0782416 10.2239 -0.0586747 9.55471 0.0230422C6.90816 0.371298 4.47888 1.67103 2.72059 3.67948C0.962297 5.68793 -0.00476744 8.26775 1.76731e-05 10.9371C1.76731e-05 26.4449 12.6172 39.0621 28.125 39.0621C30.7944 39.0669 33.3742 38.0998 35.3826 36.3415C37.3911 34.5832 38.6908 32.154 39.0391 29.5074C39.1208 28.8382 38.9839 28.1604 38.6488 27.5754C38.3137 26.9904 37.7983 26.5294 37.1797 26.2613ZM28.125 35.9371C21.4968 35.9299 15.1422 33.2936 10.4553 28.6068C5.7685 23.9199 3.13226 17.5653 3.12502 10.9371C3.11767 9.02986 3.8048 7.18514 5.0581 5.74747C6.31139 4.3098 8.04514 3.37747 9.93557 3.1246C9.9348 3.1324 9.9348 3.14025 9.93557 3.14804L14.0371 12.3277L10 17.1598C9.95904 17.2069 9.92182 17.2572 9.88869 17.3102C9.59477 17.7612 9.42235 18.2805 9.38813 18.8177C9.35391 19.3549 9.45906 19.8919 9.69338 20.3766C11.4629 23.9957 15.1094 27.6148 18.7676 29.3824C19.2558 29.6145 19.7959 29.7161 20.3351 29.677C20.8742 29.638 21.3941 29.4598 21.8438 29.1598C21.8944 29.1259 21.9427 29.0888 21.9883 29.0484L26.7363 24.9996L35.916 29.1129C35.916 29.1129 35.9317 29.1129 35.9375 29.1129C35.6873 31.0056 34.7562 32.7424 33.3183 33.9984C31.8804 35.2544 30.0342 35.9436 28.125 35.9371ZM21.875 9.37461C21.875 8.9602 22.0396 8.56278 22.3327 8.26975C22.6257 7.97673 23.0231 7.81211 23.4375 7.81211H28.125V3.1246C28.125 2.7102 28.2896 2.31278 28.5827 2.01975C28.8757 1.72673 29.2731 1.5621 29.6875 1.5621C30.1019 1.5621 30.4993 1.72673 30.7924 2.01975C31.0854 2.31278 31.25 2.7102 31.25 3.1246V7.81211H35.9375C36.3519 7.81211 36.7494 7.97673 37.0424 8.26975C37.3354 8.56278 37.5 8.9602 37.5 9.37461C37.5 9.78901 37.3354 10.1864 37.0424 10.4795C36.7494 10.7725 36.3519 10.9371 35.9375 10.9371H31.25V15.6246C31.25 16.039 31.0854 16.4364 30.7924 16.7295C30.4993 17.0225 30.1019 17.1871 29.6875 17.1871C29.2731 17.1871 28.8757 17.0225 28.5827 16.7295C28.2896 16.4364 28.125 16.039 28.125 15.6246V10.9371H23.4375C23.0231 10.9371 22.6257 10.7725 22.3327 10.4795C22.0396 10.1864 21.875 9.78901 21.875 9.37461Z" fill="url(#paint0_linear_96_625)"/>
<defs>
<linearGradient id="paint0_linear_96_625" x1="19.5311" y1="0" x2="19.5311" y2="39.0621" gradientUnits="userSpaceOnUse">
<stop stop-color="#009B77"/>
<stop offset="1" stop-color="#004E89"/>
</linearGradient>
</defs>
</svg>
