<svg width="50" height="50" viewBox="0 0 50 50" fill="none" xmlns="http://www.w3.org/2000/svg">
<path d="M20.3125 29.6875C20.3125 30.1019 20.1479 30.4993 19.8549 30.7924C19.5618 31.0854 19.1644 31.25 18.75 31.25H10.9375C10.5231 31.25 10.1257 31.0854 9.83265 30.7924C9.53962 30.4993 9.375 30.1019 9.375 29.6875C9.375 29.2731 9.53962 28.8757 9.83265 28.5826C10.1257 28.2896 10.5231 28.125 10.9375 28.125H18.75C19.1644 28.125 19.5618 28.2896 19.8549 28.5826C20.1479 28.8757 20.3125 29.2731 20.3125 29.6875ZM46.875 22.6562V34.375C46.875 35.2038 46.5458 35.9987 45.9597 36.5847C45.3737 37.1708 44.5788 37.5 43.75 37.5H26.5625V43.75C26.5625 44.1644 26.3979 44.5618 26.1049 44.8549C25.8118 45.1479 25.4144 45.3125 25 45.3125C24.5856 45.3125 24.1882 45.1479 23.8951 44.8549C23.6021 44.5618 23.4375 44.1644 23.4375 43.75V37.5H6.25C5.4212 37.5 4.62634 37.1708 4.04029 36.5847C3.45424 35.9987 3.125 35.2038 3.125 34.375V22.6562C3.12862 19.5494 4.36443 16.5707 6.56134 14.3738C8.75825 12.1769 11.7369 10.9411 14.8438 10.9375H29.6875V4.6875C29.6875 4.2731 29.8521 3.87567 30.1451 3.58265C30.4382 3.28962 30.8356 3.125 31.25 3.125H37.5C37.9144 3.125 38.3118 3.28962 38.6049 3.58265C38.8979 3.87567 39.0625 4.2731 39.0625 4.6875C39.0625 5.1019 38.8979 5.49933 38.6049 5.79235C38.3118 6.08538 37.9144 6.25 37.5 6.25H32.8125V10.9375H35.1562C38.2631 10.9411 41.2418 12.1769 43.4387 14.3738C45.6356 16.5707 46.8714 19.5494 46.875 22.6562ZM23.4375 34.375V22.6562C23.4375 20.377 22.5321 18.1912 20.9205 16.5796C19.3088 14.9679 17.123 14.0625 14.8438 14.0625C12.5645 14.0625 10.3787 14.9679 8.76705 16.5796C7.15541 18.1912 6.25 20.377 6.25 22.6562V34.375H23.4375ZM43.75 22.6562C43.7474 20.3778 42.8412 18.1935 41.2301 16.5824C39.619 14.9713 37.4347 14.0651 35.1562 14.0625H32.8125V28.125C32.8125 28.5394 32.6479 28.9368 32.3549 29.2299C32.0618 29.5229 31.6644 29.6875 31.25 29.6875C30.8356 29.6875 30.4382 29.5229 30.1451 29.2299C29.8521 28.9368 29.6875 28.5394 29.6875 28.125V14.0625H22.8027C23.9888 15.1577 24.9352 16.4867 25.5823 17.9658C26.2293 19.4448 26.5631 21.0419 26.5625 22.6562V34.375H43.75V22.6562Z" fill="url(#paint0_linear_96_618)"/>
<defs>
<linearGradient id="paint0_linear_96_618" x1="25" y1="3.125" x2="25" y2="45.3125" gradientUnits="userSpaceOnUse">
<stop stop-color="#009B77"/>
<stop offset="1" stop-color="#004E89"/>
</linearGradient>
</defs>
</svg>
