<svg width="50" height="50" viewBox="0 0 50 50" fill="none" xmlns="http://www.w3.org/2000/svg">
<path d="M39.3313 29.0481L31.6383 25.2019C31.3355 25.051 30.9982 24.9827 30.6605 25.0038C30.3229 25.0249 29.9967 25.1347 29.715 25.3221L26.1835 27.6779C24.5623 26.7868 23.2281 25.4528 22.3369 23.8317L24.6929 20.3005C24.8804 20.0188 24.9902 19.6927 25.0113 19.3551C25.0324 19.0174 24.964 18.6802 24.8131 18.3774L20.9666 10.6851C20.8072 10.3632 20.5607 10.0923 20.2552 9.90323C19.9497 9.71417 19.5974 9.61445 19.2381 9.61539C16.6877 9.61539 14.2417 10.6284 12.4383 12.4317C10.6349 14.2349 9.62177 16.6806 9.62177 19.2308C9.62813 24.8392 11.8591 30.216 15.8252 34.1818C19.7913 38.1475 25.1687 40.3783 30.7776 40.3846C32.0405 40.3846 33.2909 40.1359 34.4576 39.6527C35.6244 39.1695 36.6844 38.4612 37.5774 37.5683C38.4704 36.6755 39.1787 35.6155 39.662 34.4489C40.1452 33.2823 40.394 32.0319 40.394 30.7692C40.3942 30.412 40.2949 30.0617 40.1072 29.7577C39.9196 29.4537 39.6509 29.208 39.3313 29.0481ZM30.7776 36.5385C26.1885 36.5334 21.7887 34.7083 18.5437 31.4635C15.2987 28.2188 13.4734 23.8195 13.4683 19.2308C13.4679 17.8969 13.9298 16.6042 14.7753 15.5725C15.6208 14.5408 16.7977 13.8339 18.1058 13.5721L20.8656 19.101L18.5168 22.5962C18.3413 22.8594 18.2335 23.1619 18.2029 23.4768C18.1723 23.7917 18.2198 24.1093 18.3414 24.4014C19.7174 27.6716 22.3192 30.2731 25.5896 31.649C25.8827 31.7759 26.2027 31.8279 26.5209 31.8002C26.839 31.7725 27.1452 31.666 27.4119 31.4904L30.9243 29.149L36.4537 31.9087C36.1898 33.2181 35.4798 34.3954 34.4447 35.2397C33.4095 36.084 32.1135 36.5431 30.7776 36.5385ZM25.0079 5.95374e-07C20.6913 -0.000941253 16.4479 1.1156 12.6909 3.24094C8.93393 5.36627 5.79122 8.42801 3.56871 12.1281C1.3462 15.8282 0.119607 20.0407 0.00831316 24.3554C-0.10298 28.6702 0.904821 32.9402 2.93362 36.75L0.204996 44.9351C-0.0210244 45.6128 -0.0538253 46.34 0.11027 47.0353C0.274365 47.7305 0.628871 48.3664 1.13405 48.8715C1.63924 49.3766 2.27513 49.7311 2.97047 49.8952C3.66581 50.0593 4.3931 50.0265 5.07085 49.8005L13.2567 47.0721C16.6099 48.8554 20.3252 49.8514 24.1208 49.9846C27.9164 50.1178 31.6925 49.3846 35.1624 47.8407C38.6322 46.2968 41.7048 43.9828 44.1467 41.0742C46.5887 38.1657 48.3359 34.7392 49.2557 31.0546C50.1755 27.3701 50.2437 23.5245 49.4552 19.8097C48.6667 16.0949 47.0422 12.6085 44.705 9.61518C42.3678 6.62187 39.3793 4.20029 35.9664 2.53427C32.5534 0.868242 28.8058 0.00155825 25.0079 5.95374e-07ZM25.0079 46.1538C21.2887 46.1564 17.6348 45.1771 14.4155 43.3149C14.1798 43.1782 13.9177 43.0932 13.6467 43.0654C13.3756 43.0377 13.1018 43.0678 12.8432 43.1538L3.85198 46.1538L6.84986 37.1635C6.93628 36.9051 6.96682 36.6314 6.93947 36.3604C6.91212 36.0893 6.82749 35.8272 6.6912 35.5913C4.35917 31.5599 3.42287 26.8716 4.02755 22.2538C4.63222 17.6359 6.74407 13.3467 10.0355 10.0514C13.3269 6.75617 17.6139 4.63911 22.2314 4.02866C26.8489 3.41821 31.5388 4.3485 35.5736 6.6752C39.6084 9.00191 42.7625 12.595 44.5466 16.897C46.3308 21.199 46.6452 25.9695 45.4411 30.4685C44.2371 34.9674 41.5818 38.9433 37.8873 41.7794C34.1928 44.6154 29.6656 46.1531 25.0079 46.1538Z" fill="url(#paint0_linear_96_612)"/>
<defs>
<linearGradient id="paint0_linear_96_612" x1="25" y1="0" x2="25" y2="50" gradientUnits="userSpaceOnUse">
<stop stop-color="#009B77"/>
<stop offset="1" stop-color="#004E89"/>
</linearGradient>
</defs>
</svg>
